<?xml version="1.0" encoding="UTF-8"?>
<svg id="rtlGraph" role="img" aria-label="Yosys RTL schematic" viewBox="0 0 868 638" width="17.10cm" height="12.57cm" xmlns="http://www.w3.org/2000/svg" xmlns:xlink="http://www.w3.org/1999/xlink" preserveAspectRatio="xMidYMid meet" data-paper-width="17.10 cm" data-paper-height="12.57 cm" data-export="RSC Nanoscale double-column figure"><metadata>RSC Nanoscale figure; 17.10 cm x 12.57 cm; editable vector master.</metadata><title>alu4 RTL schematic</title><desc>Yosys pre-mapping RTL operators with collapsed bus connections and state boundaries.</desc><style>
    text { font-family: Arial, Helvetica, sans-serif; }
    .rtl-edge { fill:none; stroke:#53646b; stroke-width:1.35; opacity:.9; }
    .rtl-edge.bus { stroke-width:2.4; }
    .rtl-wire-label { fill:#3f4c51; font:700 9px Arial, sans-serif; }
    .rtl-stage-label { fill:#6a777c; font:700 9px Arial, sans-serif; letter-spacing:1.1px; }
    .rtl-node rect { fill:#fff; stroke:#2f474f; stroke-width:1.6; }
    .rtl-node.state rect { fill:#f7f1e5; stroke:#815d32; }
    .rtl-type { fill:#17272d; font:700 13px Arial, sans-serif; }
    .rtl-reference { fill:#53646b; font:700 10px Arial, sans-serif; }
    .rtl-port rect,.network-port rect { fill:#fff; stroke:#455b63; stroke-width:1.4; }
    .rtl-port text,.network-port text { fill:#1c2d33; font:700 10px Arial, sans-serif; }
    .skyr-track-shell { fill:none; stroke:#1d292d; stroke-width:9; stroke-linejoin:round; }
    .skyr-track-core { fill:none; stroke:#dce4e5; stroke-width:5; stroke-linejoin:round; }
    .skyr-track-core.critical { stroke:#c84e45; }
    .track-contact { fill:#dce4e5; stroke:#1d292d; stroke-width:1.3; }
    .track-contact.critical { fill:#c84e45; }
    .gate-critical-halo { fill:#fff6f5; stroke:#c84e45; stroke-width:2.3; stroke-dasharray:4 3; }
    .skyr-gate-label { fill:#25383e; font:700 10px Arial, sans-serif; }
    .network-figure-label { fill:#526970; font:700 18px Arial, sans-serif; letter-spacing:1.2px; }
    .paper-network .skyr-gate-label { font-size:18px; }
    .paper-network .network-port text { font-size:16px; }
    .paper-network .network-port rect { stroke-width:2; }
    .gate-internal-track { fill:none; stroke:#1d292d; stroke-width:7; }
</style><rect x="0" y="0" width="868" height="638" fill="#ffffff"/><defs><marker id="rtlArrow" markerWidth="6" markerHeight="6" refX="5.5" refY="3" orient="auto"><path d="M0,0 L6,3 L0,6 z" fill="#53646b"/></marker></defs><text x="20" y="22" class="rtl-stage-label">INPUTS</text><text x="154" y="22" class="rtl-stage-label">RTL OPERATORS</text><text x="736" y="22" class="rtl-stage-label">OUTPUTS</text><path d="M122,66 H144 V67 H154" class="rtl-edge bus" marker-end="url(#rtlArrow)"/><path d="M122,118 H144 V67 H154" class="rtl-edge bus" marker-end="url(#rtlArrow)"/><path d="M122,66 H144 V145 H154" class="rtl-edge bus" marker-end="url(#rtlArrow)"/><path d="M122,118 H144 V145 H154" class="rtl-edge bus" marker-end="url(#rtlArrow)"/><path d="M122,66 H144 V223 H154" class="rtl-edge bus" marker-end="url(#rtlArrow)"/><path d="M122,66 H144 V301 H154" class="rtl-edge bus" marker-end="url(#rtlArrow)"/><path d="M122,118 H144 V301 H154" class="rtl-edge bus" marker-end="url(#rtlArrow)"/><path d="M122,66 H332 V67 H542" class="rtl-edge bus" marker-end="url(#rtlArrow)"/><path d="M296,223 H419 V67 H542" class="rtl-edge bus" marker-end="url(#rtlArrow)"/><path d="M490,457 H516 V67 H542" class="rtl-edge bus" marker-end="url(#rtlArrow)"/><path d="M296,301 H419 V67 H542" class="rtl-edge bus" marker-end="url(#rtlArrow)"/><path d="M296,145 H419 V67 H542" class="rtl-edge bus" marker-end="url(#rtlArrow)"/><path d="M490,379 H516 V67 H542" class="rtl-edge bus" marker-end="url(#rtlArrow)"/><path d="M296,67 H419 V67 H542" class="rtl-edge bus" marker-end="url(#rtlArrow)"/><path d="M296,379 H419 V67 H542" class="rtl-edge" marker-end="url(#rtlArrow)"/><path d="M296,457 H419 V67 H542" class="rtl-edge" marker-end="url(#rtlArrow)"/><path d="M296,535 H419 V67 H542" class="rtl-edge" marker-end="url(#rtlArrow)"/><path d="M490,67 H516 V67 H542" class="rtl-edge" marker-end="url(#rtlArrow)"/><path d="M490,145 H516 V67 H542" class="rtl-edge" marker-end="url(#rtlArrow)"/><path d="M490,223 H516 V67 H542" class="rtl-edge" marker-end="url(#rtlArrow)"/><path d="M490,301 H516 V67 H542" class="rtl-edge" marker-end="url(#rtlArrow)"/><path d="M122,170 H144 V379 H154" class="rtl-edge bus" marker-end="url(#rtlArrow)"/><path d="M122,170 H144 V457 H154" class="rtl-edge bus" marker-end="url(#rtlArrow)"/><path d="M122,170 H144 V535 H154" class="rtl-edge bus" marker-end="url(#rtlArrow)"/><path d="M122,170 H235 V67 H348" class="rtl-edge bus" marker-end="url(#rtlArrow)"/><path d="M122,170 H235 V145 H348" class="rtl-edge bus" marker-end="url(#rtlArrow)"/><path d="M122,170 H235 V223 H348" class="rtl-edge bus" marker-end="url(#rtlArrow)"/><path d="M122,170 H235 V301 H348" class="rtl-edge bus" marker-end="url(#rtlArrow)"/><path d="M122,66 H235 V379 H348" class="rtl-edge bus" marker-end="url(#rtlArrow)"/><path d="M122,118 H235 V379 H348" class="rtl-edge bus" marker-end="url(#rtlArrow)"/><path d="M122,66 H235 V457 H348" class="rtl-edge bus" marker-end="url(#rtlArrow)"/><path d="M122,118 H235 V457 H348" class="rtl-edge bus" marker-end="url(#rtlArrow)"/><path d="M684,67 H710 V66 H736" class="rtl-edge bus" marker-end="url(#rtlArrow)"/><path d="M684,67 H710 V118 H736" class="rtl-edge" marker-end="url(#rtlArrow)"/><g class="rtl-port input" transform="translate(20,50)"><rect width="102" height="32" rx="2"/><text x="51" y="20" text-anchor="middle">a [4]</text></g><g class="rtl-port input" transform="translate(20,102)"><rect width="102" height="32" rx="2"/><text x="51" y="20" text-anchor="middle">b [4]</text></g><g class="rtl-port input" transform="translate(20,154)"><rect width="102" height="32" rx="2"/><text x="51" y="20" text-anchor="middle">operation [3]</text></g><g class="rtl-port output" transform="translate(736,50)"><rect width="102" height="32" rx="2"/><text x="51" y="20" text-anchor="middle">result [4]</text></g><g class="rtl-port output" transform="translate(736,102)"><rect width="102" height="32" rx="2"/><text x="51" y="20" text-anchor="middle">carry</text></g><g class="rtl-node logic" transform="translate(154,42)"><title>R1 · $add$design.v:13$2 · $add</title><rect width="142" height="50" rx="3"/><text x="13" y="30" class="rtl-type">ADD</text><text x="130" y="30" class="rtl-reference" text-anchor="end">R1</text></g><g class="rtl-node logic" transform="translate(154,120)"><title>R2 · $and$design.v:15$4 · $and</title><rect width="142" height="50" rx="3"/><text x="13" y="30" class="rtl-type">AND</text><text x="130" y="30" class="rtl-reference" text-anchor="end">R2</text></g><g class="rtl-node logic" transform="translate(154,198)"><title>R3 · $not$design.v:18$7 · $not</title><rect width="142" height="50" rx="3"/><text x="13" y="30" class="rtl-type">NOT</text><text x="130" y="30" class="rtl-reference" text-anchor="end">R3</text></g><g class="rtl-node logic" transform="translate(154,276)"><title>R4 · $or$design.v:16$5 · $or</title><rect width="142" height="50" rx="3"/><text x="13" y="30" class="rtl-type">OR</text><text x="130" y="30" class="rtl-reference" text-anchor="end">R4</text></g><g class="rtl-node logic" transform="translate(154,354)"><title>R5 · $procmux$12_CMP0 · $eq</title><rect width="142" height="50" rx="3"/><text x="13" y="30" class="rtl-type">EQ</text><text x="130" y="30" class="rtl-reference" text-anchor="end">R5</text></g><g class="rtl-node logic" transform="translate(154,432)"><title>R6 · $procmux$13_CMP0 · $eq</title><rect width="142" height="50" rx="3"/><text x="13" y="30" class="rtl-type">EQ</text><text x="130" y="30" class="rtl-reference" text-anchor="end">R6</text></g><g class="rtl-node logic" transform="translate(154,510)"><title>R7 · $procmux$14_CMP0 · $eq</title><rect width="142" height="50" rx="3"/><text x="13" y="30" class="rtl-type">EQ</text><text x="130" y="30" class="rtl-reference" text-anchor="end">R7</text></g><g class="rtl-node logic" transform="translate(348,42)"><title>R8 · $procmux$15_CMP0 · $eq</title><rect width="142" height="50" rx="3"/><text x="13" y="30" class="rtl-type">EQ</text><text x="130" y="30" class="rtl-reference" text-anchor="end">R8</text></g><g class="rtl-node logic" transform="translate(348,120)"><title>R9 · $procmux$16_CMP0 · $eq</title><rect width="142" height="50" rx="3"/><text x="13" y="30" class="rtl-type">EQ</text><text x="130" y="30" class="rtl-reference" text-anchor="end">R9</text></g><g class="rtl-node logic" transform="translate(348,198)"><title>R10 · $procmux$17_CMP0 · $eq</title><rect width="142" height="50" rx="3"/><text x="13" y="30" class="rtl-type">EQ</text><text x="130" y="30" class="rtl-reference" text-anchor="end">R10</text></g><g class="rtl-node logic" transform="translate(348,276)"><title>R11 · $procmux$18_CMP0 · $logic_not</title><rect width="142" height="50" rx="3"/><text x="13" y="30" class="rtl-type">NOT</text><text x="130" y="30" class="rtl-reference" text-anchor="end">R11</text></g><g class="rtl-node logic" transform="translate(348,354)"><title>R12 · $sub$design.v:14$3 · $sub</title><rect width="142" height="50" rx="3"/><text x="13" y="30" class="rtl-type">SUB</text><text x="130" y="30" class="rtl-reference" text-anchor="end">R12</text></g><g class="rtl-node logic" transform="translate(348,432)"><title>R13 · $xor$design.v:17$6 · $xor</title><rect width="142" height="50" rx="3"/><text x="13" y="30" class="rtl-type">XOR</text><text x="130" y="30" class="rtl-reference" text-anchor="end">R13</text></g><g class="rtl-node logic" transform="translate(542,42)"><title>R14 · $procmux$11 · $pmux</title><rect width="142" height="50" rx="3"/><text x="13" y="30" class="rtl-type">MUX</text><text x="130" y="30" class="rtl-reference" text-anchor="end">R14</text></g></svg>